{"title":"BBC Bang Goes the Theory S05E02 Episode 2 HD 720p x264 [aularon]","uid":6623598,"size":551010734,"categoryP":"video","categoryS":"hd___tv_shows","magnet":"?xt=urn:btih:24d1799c80098f77b5eda6c6cb6882ec5cd319bf&amp;dn=BBC+Bang+Goes+the+Theory+S05E02+Episode+2+HD+720p+x264+%5Baularon%5D&amp;tr=udp%3A%2F%2Ftracker.openbittorrent.com%3A80&amp;tr=udp%3A%2F%2Fopen.demonii.com%3A1337&amp;tr=udp%3A%2F%2Ftracker.coppersurfer.tk%3A6969&amp;tr=udp%3A%2F%2Fexodus.desync.com%3A6969","seeders":1,"leechers":0,"uploader":"aularon","files":-1,"time":1314093147,"description":"BBC Bang Goes the Theory S05E02 Episode 2 HD 720p x264 aac mp4 [aularon]\n\n- - -\nSynopsis\n- - -\nIn the second episode of the science series, Liz hits the beach with the RNLI to experience the power of rip currents; Dr Yan attempts to demonstrate evolution by drawing a couple of lines; and Jem is back in the workshop, turning everyday scrap into gold.\n\n\n- - -\nURL\n- - - &lt;a href=&quot;\nhttp://www.bbc.co.uk/programmes/b013spj0&quot; rel=&quot;nofollow&quot; target=&quot;_NEW&quot;&gt;\nhttp://www.bbc.co.uk/programmes/b013spj0&lt;/a&gt;\n\n\n- - -\nTechnical Details\n- - -\nGeneral\nComplete name                    : BBC.Bang.Goes.the.Theory.S05E02/Bang_Goes_the_Theory_Series_5_-_Episode_2_b013spj0_default.mp4\nFormat                           : MPEG-4\nFormat profile                   : Base Media\nCodec ID                         : isom\nFile size                        : 525 MiB\nDuration                         : 28mn 10s\nOverall bit rate                 : 2 607 Kbps\nMovie name                       : Bang Goes the Theory: Series 5: Episode 2\nAlbum                            : Bang Goes the Theory: Series 5\nTrack name/Position              : 2\nTrack name/Total                 : 0\nPerformer                        : Bang Goes the Theory: Series 5\nGenre                            : Factual,Science &amp; Nature\nRecorded date                    : 2011-08-22T19:30:00+01:00\nWriting application              : Lavf53.6.0\nCover                            : Yes\nComment                          : Recorded using get_iplayer, by Aularon.\nrtng                             : 2\nstik                             : 1\ndesc                             : Science series. Liz hits the beach with the RNLI to experience the power of rip currents, while Dr Yan attempts to demonstrate evolution by drawing a couple of lines.\ntvnn                             : BBC One\ntvsh                             : Bang Goes the Theory: Series 5\ntven                             : b013spj0\ncatg                             : Factual,Science &amp; Nature\ntvsn                             : 5\ntves                             : 2\n\nVideo\nID                               : 1\nFormat                           : AVC\nFormat/Info                      : Advanced Video Codec\nFormat profile                   : &lt;a class=&quot;__cf_email__&quot; href=&quot;/cdn-cgi/l/email-protection&quot; data-cfemail=&quot;d29abbb5ba929ee6fce3&quot;&gt;[email&amp;#160;protected]&lt;/a&gt;&lt;script cf-hash='f9e31' type=&quot;text/javascript&quot;&gt;\n/* &lt;![CDATA[ */!function(){try{var t=&quot;currentScript&quot;in document?document.currentScript:function(){for(var t=document.getElementsByTagName(&quot;script&quot;),e=t.length;e--;)if(t[e].getAttribute(&quot;cf-hash&quot;))return t[e]}();if(t&amp;&amp;t.previousSibling){var e,r,n,i,c=t.previousSibling,a=c.getAttribute(&quot;data-cfemail&quot;);if(a){for(e=&quot;&quot;,r=parseInt(a.substr(0,2),16),n=2;a.length-n;n+=2)i=parseInt(a.substr(n,2),16)^r,e+=String.fromCharCode(i);e=document.createTextNode(e),c.parentNode.replaceChild(e,c)}}}catch(u){}}();/* ]]&gt; */&lt;/script&gt;\nFormat settings, CABAC           : Yes\nFormat settings, ReFrames        : 6 frames\nFormat settings, GOP             : M=1, N=50\nCodec ID                         : avc1\nCodec ID/Info                    : Advanced Video Coding\nDuration                         : 28mn 10s\nBit rate mode                    : Variable\nBit rate                         : 2 507 Kbps\nMaximum bit rate                 : 3 500 Kbps\nWidth                            : 1 280 pixels\nHeight                           : 720 pixels\nDisplay aspect ratio             : 16:9\nFrame rate mode                  : Constant\nFrame rate                       : 25.000 fps\nStandard                         : PAL\nColor space                      : YUV\nChroma subsampling               : 4:2:0\nBit depth                        : 8 bits\nScan type                        : Progressive\nBits/(Pixel*Frame)               : 0.109\nStream size                      : 505 MiB (96%)\n\nAudio\nID                               : 2\nFormat                           : AAC\nFormat/Info                      : Advanced Audio Codec\nFormat profile                   : HE-AAC / LC\nCodec ID                         : 40\nDuration                         : 28mn 10s\nBit rate mode                    : Constant\nBit rate                         : 96.0 Kbps\nChannel(s)                       : 2 channels\nChannel positions                : Front: L R\nSampling rate                    : 48.0 KHz / 24.0 KHz\nCompression mode                 : Lossy\nStream size                      : 19.1 MiB (4%)\n\n","torrent":{"xt":"urn:btih:24d1799c80098f77b5eda6c6cb6882ec5cd319bf","amp;dn":"BBC+Bang+Goes+the+Theory+S05E02+Episode+2+HD+720p+x264+%5Baularon%5D","amp;tr":["udp%3A%2F%2Ftracker.openbittorrent.com%3A80","udp%3A%2F%2Fopen.demonii.com%3A1337","udp%3A%2F%2Ftracker.coppersurfer.tk%3A6969","udp%3A%2F%2Fexodus.desync.com%3A6969"],"infoHash":"24d1799c80098f77b5eda6c6cb6882ec5cd319bf","infoHashBuffer":{"type":"Buffer","data":[36,209,121,156,128,9,143,119,181,237,166,198,203,104,130,236,92,211,25,191]},"announce":[],"urlList":[]}}